# xmcd
# 
# Track frame offsets:
#     183
#     19775
#     49295
#     65840
#     84498
#     103595
#     124430
#     141268
#     161235
#     179533
#     186445
#     205978
#     220923
#     252765
#     275505
# 
# Disc length: 3851
# 
# Revision: 2
# Processed by: cddbd v1.5.2PL0 Copyright (c) Steve Scherf et al.
# Submitted via: fre:ac v1.0.17
# 
DISCID=f00f090f
DTITLE=Little Nemo - Turquoise Fields
DYEAR=1990
DGENRE=Indie
TTITLE0=Turquoise Fields
TTITLE1=L'heure D'hiver
TTITLE2=You Again
TTITLE3=Cadavres Exquis (Howard Song)
TTITLE4=Promise Of Storm
TTITLE5=Running To The Sun
TTITLE6=God Of Indifference
TTITLE7=Electric Jive
TTITLE8=The Garden Wall
TTITLE9=Quiet Fluid Roses
TTITLE10=Overprose
TTITLE11=Love Is A Lie
TTITLE12=City Lights (Long Way)
TTITLE13=Berlin
TTITLE14=The Fall
EXTD=
EXTT0=
EXTT1=
EXTT2=
EXTT3=
EXTT4=
EXTT5=
EXTT6=
EXTT7=
EXTT8=
EXTT9=
EXTT10=
EXTT11=
EXTT12=
EXTT13=
EXTT14=
PLAYORDER=
